# xmcd
#
# Track frame offsets:
#	150
#	13307
#	26837
#	45467
#	56272
#	69195
#	84067
#	96737
#	107485
#	119305
#
# Disc length: 1739 seconds
#
# Revision: 1
# Processed by: cddbd v1.5.2PL0 Copyright (c) Steve Scherf et al.
# Submitted via: EasyCDDAExtractor 15.3.0.1
#
DISCID=7706c90a
DTITLE=Selena
DYEAR=1989
DGENRE=Latin
TTITLE0=Tu Eres
TTITLE1=Sukiyaki
TTITLE2=Contigo Quiero Estar
TTITLE3=Besitos
TTITLE4=Amame, Quiereme
TTITLE5=Tengo Ganas De Llorar
TTITLE6=My Love
TTITLE7=Quiero Ser
TTITLE8=Mentiras
TTITLE9=No Te Vayas
EXTD=
EXTT0=
EXTT1=
EXTT2=
EXTT3=
EXTT4=
EXTT5=
EXTT6=
EXTT7=
EXTT8=
EXTT9=
PLAYORDER=
